<svg width="759" height="449" viewBox="0 0 759 449" fill="none" xmlns="http://www.w3.org/2000/svg">
<path d="M140.457 270.273V247.581L208.428 285.385L253.956 259.486V242.187L208.823 214.976L208.527 192.138L229.487 192.624V204.189L276.152 231.351V270.273L207.242 309L140.457 270.273Z" fill="url(#paint0_linear_0_1)"/>
<path d="M187.073 244.86V255.744L207.242 256V234.704L161.812 206.473V190.389L208.823 164.344L276.152 202.294V178.727L208.428 140C186.002 152.909 141.011 178.727 140.457 178.727C139.904 178.727 139.921 204.913 140.151 218L187.073 244.86Z" fill="url(#paint1_linear_0_1)"/>
<path d="M307.278 214.768C307.085 212.821 306.256 211.307 304.791 210.229C303.326 209.15 301.337 208.611 298.826 208.611C297.12 208.611 295.679 208.852 294.504 209.335C293.328 209.802 292.427 210.454 291.799 211.291C291.187 212.128 290.881 213.078 290.881 214.141C290.849 215.026 291.034 215.799 291.437 216.459C291.855 217.119 292.427 217.69 293.151 218.173C293.876 218.64 294.713 219.051 295.663 219.405C296.613 219.743 297.627 220.033 298.705 220.274L303.149 221.337C305.306 221.82 307.286 222.464 309.089 223.268C310.892 224.073 312.453 225.063 313.774 226.239C315.094 227.414 316.116 228.798 316.84 230.392C317.581 231.986 317.959 233.813 317.975 235.874C317.959 238.9 317.186 241.524 315.657 243.746C314.144 245.951 311.954 247.666 309.089 248.889C306.239 250.097 302.802 250.7 298.778 250.7C294.785 250.7 291.308 250.089 288.346 248.865C285.4 247.642 283.098 245.83 281.44 243.432C279.798 241.017 278.936 238.031 278.856 234.473H288.974C289.087 236.131 289.561 237.516 290.399 238.626C291.252 239.721 292.387 240.55 293.803 241.114C295.236 241.661 296.854 241.935 298.657 241.935C300.428 241.935 301.965 241.677 303.269 241.162C304.589 240.647 305.612 239.93 306.336 239.013C307.06 238.095 307.423 237.041 307.423 235.849C307.423 234.739 307.093 233.805 306.433 233.048C305.789 232.292 304.839 231.648 303.583 231.116C302.344 230.585 300.822 230.102 299.019 229.668L293.634 228.315C289.465 227.301 286.173 225.715 283.758 223.558C281.343 221.401 280.144 218.495 280.16 214.841C280.144 211.847 280.941 209.231 282.551 206.993C284.176 204.755 286.406 203.009 289.239 201.753C292.073 200.497 295.292 199.869 298.899 199.869C302.569 199.869 305.773 200.497 308.509 201.753C311.262 203.009 313.403 204.755 314.933 206.993C316.462 209.231 317.251 211.822 317.299 214.768H307.278ZM341.574 250.724C337.774 250.724 334.506 249.92 331.77 248.31C329.049 246.684 326.956 244.43 325.491 241.548C324.042 238.667 323.318 235.35 323.318 231.599C323.318 227.8 324.05 224.468 325.515 221.602C326.996 218.721 329.097 216.475 331.818 214.865C334.539 213.239 337.774 212.426 341.525 212.426C344.761 212.426 347.594 213.014 350.025 214.189C352.456 215.364 354.38 217.014 355.797 219.139C357.213 221.264 357.994 223.759 358.139 226.625H348.432C348.158 224.774 347.433 223.285 346.258 222.158C345.099 221.015 343.578 220.443 341.694 220.443C340.101 220.443 338.708 220.878 337.517 221.747C336.342 222.6 335.424 223.848 334.764 225.49C334.104 227.132 333.774 229.12 333.774 231.455C333.774 233.821 334.096 235.833 334.74 237.491C335.4 239.15 336.325 240.413 337.517 241.283C338.708 242.152 340.101 242.587 341.694 242.587C342.87 242.587 343.924 242.345 344.858 241.862C345.807 241.379 346.588 240.679 347.2 239.761C347.828 238.828 348.238 237.709 348.432 236.405H358.139C357.978 239.238 357.205 241.733 355.821 243.891C354.452 246.032 352.561 247.706 350.146 248.913C347.731 250.121 344.874 250.724 341.574 250.724ZM375.012 228.557V250H364.725V200.545H374.722V219.453H375.157C375.994 217.264 377.346 215.549 379.214 214.31C381.081 213.054 383.424 212.426 386.241 212.426C388.817 212.426 391.062 212.99 392.978 214.116C394.91 215.227 396.407 216.829 397.47 218.922C398.548 220.999 399.079 223.486 399.063 226.384V250H388.776V228.219C388.792 225.933 388.213 224.154 387.038 222.882C385.879 221.61 384.253 220.974 382.16 220.974C380.759 220.974 379.52 221.272 378.441 221.868C377.379 222.464 376.542 223.333 375.93 224.476C375.334 225.603 375.028 226.963 375.012 228.557ZM423.917 250.724C420.166 250.724 416.923 249.928 414.186 248.334C411.465 246.724 409.364 244.486 407.883 241.621C406.402 238.739 405.662 235.399 405.662 231.599C405.662 227.768 406.402 224.42 407.883 221.554C409.364 218.672 411.465 216.435 414.186 214.841C416.923 213.231 420.166 212.426 423.917 212.426C427.668 212.426 430.904 213.231 433.625 214.841C436.361 216.435 438.47 218.672 439.951 221.554C441.433 224.42 442.173 227.768 442.173 231.599C442.173 235.399 441.433 238.739 439.951 241.621C438.47 244.486 436.361 246.724 433.625 248.334C430.904 249.928 427.668 250.724 423.917 250.724ZM423.966 242.756C425.672 242.756 427.097 242.273 428.24 241.307C429.383 240.325 430.244 238.989 430.824 237.298C431.419 235.608 431.717 233.684 431.717 231.527C431.717 229.37 431.419 227.446 430.824 225.756C430.244 224.065 429.383 222.729 428.24 221.747C427.097 220.765 425.672 220.274 423.966 220.274C422.243 220.274 420.794 220.765 419.619 221.747C418.46 222.729 417.583 224.065 416.987 225.756C416.407 227.446 416.118 229.37 416.118 231.527C416.118 233.684 416.407 235.608 416.987 237.298C417.583 238.989 418.46 240.325 419.619 241.307C420.794 242.273 422.243 242.756 423.966 242.756ZM465.62 250.724C461.87 250.724 458.626 249.928 455.889 248.334C453.168 246.724 451.067 244.486 449.586 241.621C448.105 238.739 447.365 235.399 447.365 231.599C447.365 227.768 448.105 224.42 449.586 221.554C451.067 218.672 453.168 216.435 455.889 214.841C458.626 213.231 461.87 212.426 465.62 212.426C469.371 212.426 472.607 213.231 475.328 214.841C478.065 216.435 480.174 218.672 481.655 221.554C483.136 224.42 483.876 227.768 483.876 231.599C483.876 235.399 483.136 238.739 481.655 241.621C480.174 244.486 478.065 246.724 475.328 248.334C472.607 249.928 469.371 250.724 465.62 250.724ZM465.669 242.756C467.375 242.756 468.8 242.273 469.943 241.307C471.086 240.325 471.947 238.989 472.527 237.298C473.122 235.608 473.42 233.684 473.42 231.527C473.42 229.37 473.122 227.446 472.527 225.756C471.947 224.065 471.086 222.729 469.943 221.747C468.8 220.765 467.375 220.274 465.669 220.274C463.946 220.274 462.497 220.765 461.322 221.747C460.163 222.729 459.286 224.065 458.69 225.756C458.111 227.446 457.821 229.37 457.821 231.527C457.821 233.684 458.111 235.608 458.69 237.298C459.286 238.989 460.163 240.325 461.322 241.307C462.497 242.273 463.946 242.756 465.669 242.756ZM500.852 200.545V250H490.565V200.545H500.852Z" fill="#0F172A"/>
<path d="M554.732 225.273C554.732 230.666 553.709 235.254 551.665 239.037C549.636 242.82 546.868 245.71 543.358 247.706C539.865 249.686 535.937 250.676 531.574 250.676C527.179 250.676 523.235 249.678 519.742 247.682C516.248 245.686 513.487 242.796 511.459 239.013C509.43 235.23 508.416 230.65 508.416 225.273C508.416 219.88 509.43 215.292 511.459 211.509C513.487 207.725 516.248 204.844 519.742 202.864C523.235 200.867 527.179 199.869 531.574 199.869C535.937 199.869 539.865 200.867 543.358 202.864C546.868 204.844 549.636 207.725 551.665 211.509C553.709 215.292 554.732 219.88 554.732 225.273ZM544.131 225.273C544.131 221.779 543.608 218.833 542.561 216.435C541.531 214.036 540.074 212.217 538.19 210.977C536.307 209.738 534.101 209.118 531.574 209.118C529.046 209.118 526.841 209.738 524.957 210.977C523.074 212.217 521.609 214.036 520.563 216.435C519.532 218.833 519.017 221.779 519.017 225.273C519.017 228.766 519.532 231.712 520.563 234.111C521.609 236.509 523.074 238.329 524.957 239.568C526.841 240.808 529.046 241.428 531.574 241.428C534.101 241.428 536.307 240.808 538.19 239.568C540.074 238.329 541.531 236.509 542.561 234.111C543.608 231.712 544.131 228.766 544.131 225.273ZM589.305 214.768C589.112 212.821 588.283 211.307 586.818 210.229C585.353 209.15 583.365 208.611 580.853 208.611C579.147 208.611 577.706 208.852 576.531 209.335C575.356 209.802 574.454 210.454 573.826 211.291C573.215 212.128 572.909 213.078 572.909 214.141C572.877 215.026 573.062 215.799 573.464 216.459C573.883 217.119 574.454 217.69 575.179 218.173C575.903 218.64 576.74 219.051 577.69 219.405C578.64 219.743 579.654 220.033 580.733 220.274L585.176 221.337C587.333 221.82 589.313 222.464 591.116 223.268C592.919 224.073 594.481 225.063 595.801 226.239C597.121 227.414 598.143 228.798 598.868 230.392C599.608 231.986 599.986 233.813 600.003 235.874C599.986 238.9 599.214 241.524 597.684 243.746C596.171 245.951 593.982 247.666 591.116 248.889C588.267 250.097 584.83 250.7 580.805 250.7C576.813 250.7 573.335 250.089 570.373 248.865C567.427 247.642 565.125 245.83 563.467 243.432C561.825 241.017 560.964 238.031 560.883 234.473H571.001C571.114 236.131 571.589 237.516 572.426 238.626C573.279 239.721 574.414 240.55 575.831 241.114C577.263 241.661 578.881 241.935 580.684 241.935C582.455 241.935 583.993 241.677 585.297 241.162C586.617 240.647 587.639 239.93 588.363 239.013C589.088 238.095 589.45 237.041 589.45 235.849C589.45 234.739 589.12 233.805 588.46 233.048C587.816 232.292 586.866 231.648 585.611 231.116C584.371 230.585 582.85 230.102 581.047 229.668L575.662 228.315C571.492 227.301 568.2 225.715 565.785 223.558C563.37 221.401 562.171 218.495 562.187 214.841C562.171 211.847 562.968 209.231 564.578 206.993C566.204 204.755 568.433 203.009 571.267 201.753C574.1 200.497 577.32 199.869 580.926 199.869C584.596 199.869 587.8 200.497 590.537 201.753C593.29 203.009 595.431 204.755 596.96 206.993C598.489 209.231 599.278 211.822 599.326 214.768H589.305Z" fill="#00B8C8"/>
<rect x="40" y="4" width="61.2656" height="30" rx="3" fill="white"/>
<rect x="40.5" y="4.5" width="60.2656" height="29" rx="2.5" stroke="black" stroke-opacity="0.2"/>
<path d="M51.3438 16C51.2969 15.6042 51.1068 15.2969 50.7734 15.0781C50.4401 14.8594 50.0313 14.75 49.5469 14.75C49.1927 14.75 48.8828 14.8073 48.6172 14.9219C48.3542 15.0365 48.1484 15.194 48 15.3945C47.8542 15.5951 47.7813 15.8229 47.7813 16.0781C47.7813 16.2917 47.832 16.4753 47.9336 16.6289C48.0378 16.7799 48.1706 16.9062 48.332 17.0078C48.4935 17.1068 48.6628 17.1888 48.8398 17.2539C49.0169 17.3164 49.1797 17.3672 49.3281 17.4062L50.1406 17.625C50.349 17.6797 50.5807 17.7552 50.8359 17.8516C51.0938 17.9479 51.3398 18.0794 51.5742 18.2461C51.8112 18.4102 52.0065 18.6211 52.1602 18.8789C52.3138 19.1367 52.3906 19.4531 52.3906 19.8281C52.3906 20.2604 52.2773 20.651 52.0508 21C51.8268 21.349 51.4987 21.6263 51.0664 21.832C50.6367 22.0378 50.1146 22.1406 49.5 22.1406C48.9271 22.1406 48.431 22.0482 48.0117 21.8633C47.5951 21.6784 47.2669 21.4206 47.0273 21.0898C46.7904 20.7591 46.6563 20.375 46.625 19.9375H47.625C47.651 20.2396 47.7526 20.4896 47.9297 20.6875C48.1094 20.8828 48.3359 21.0286 48.6094 21.125C48.8854 21.2187 49.1823 21.2656 49.5 21.2656C49.8698 21.2656 50.2018 21.2057 50.4961 21.0859C50.7904 20.9635 51.0234 20.7943 51.1953 20.5781C51.3672 20.3594 51.4531 20.1042 51.4531 19.8125C51.4531 19.5469 51.3789 19.3307 51.2305 19.1641C51.082 18.9974 50.8867 18.862 50.6445 18.7578C50.4023 18.6536 50.1406 18.5625 49.8594 18.4844L48.875 18.2031C48.25 18.0234 47.7552 17.7669 47.3906 17.4336C47.026 17.1003 46.8438 16.6641 46.8438 16.125C46.8438 15.6771 46.9648 15.2865 47.207 14.9531C47.4518 14.6172 47.7799 14.3568 48.1914 14.1719C48.6055 13.9844 49.0677 13.8906 49.5781 13.8906C50.0938 13.8906 50.5521 13.9831 50.9531 14.168C51.3542 14.3503 51.6719 14.6003 51.9062 14.918C52.1432 15.2357 52.2682 15.5964 52.2813 16H51.3438ZM56.374 22.125C55.7959 22.125 55.2972 21.9974 54.8779 21.7422C54.4613 21.4844 54.1396 21.125 53.9131 20.6641C53.6891 20.2005 53.5771 19.6615 53.5771 19.0469C53.5771 18.4323 53.6891 17.8906 53.9131 17.4219C54.1396 16.9505 54.4548 16.5833 54.8584 16.3203C55.2646 16.0547 55.7386 15.9219 56.2803 15.9219C56.5928 15.9219 56.9014 15.974 57.2061 16.0781C57.5107 16.1823 57.7881 16.3516 58.0381 16.5859C58.2881 16.8177 58.4873 17.125 58.6357 17.5078C58.7842 17.8906 58.8584 18.362 58.8584 18.9219V19.3125H54.2334V18.5156H57.9209C57.9209 18.1771 57.8532 17.875 57.7178 17.6094C57.585 17.3437 57.3949 17.1341 57.1475 16.9805C56.9027 16.8268 56.6136 16.75 56.2803 16.75C55.9131 16.75 55.5954 16.8411 55.3271 17.0234C55.0615 17.2031 54.8571 17.4375 54.7139 17.7266C54.5706 18.0156 54.499 18.3255 54.499 18.6562V19.1875C54.499 19.6406 54.5771 20.0247 54.7334 20.3398C54.8923 20.6523 55.1123 20.8906 55.3936 21.0547C55.6748 21.2161 56.0016 21.2969 56.374 21.2969C56.6162 21.2969 56.835 21.263 57.0303 21.1953C57.2282 21.125 57.3988 21.0208 57.542 20.8828C57.6852 20.7422 57.7959 20.5677 57.874 20.3594L58.7646 20.6094C58.6709 20.9115 58.5133 21.1771 58.292 21.4062C58.0706 21.6328 57.7972 21.8099 57.4717 21.9375C57.1462 22.0625 56.7803 22.125 56.374 22.125ZM62.6982 22.125C62.1357 22.125 61.6514 21.9922 61.2451 21.7266C60.8389 21.4609 60.5264 21.0951 60.3076 20.6289C60.0889 20.1628 59.9795 19.6302 59.9795 19.0312C59.9795 18.4219 60.0915 17.8841 60.3154 17.418C60.542 16.9492 60.8571 16.5833 61.2607 16.3203C61.667 16.0547 62.141 15.9219 62.6826 15.9219C63.1045 15.9219 63.4847 16 63.8232 16.1562C64.1618 16.3125 64.4391 16.5312 64.6553 16.8125C64.8714 17.0937 65.0055 17.4219 65.0576 17.7969H64.1357C64.0654 17.5234 63.9092 17.2812 63.667 17.0703C63.4274 16.8568 63.1045 16.75 62.6982 16.75C62.3389 16.75 62.0238 16.8437 61.7529 17.0312C61.4847 17.2161 61.2751 17.4779 61.124 17.8164C60.9756 18.1523 60.9014 18.5469 60.9014 19C60.9014 19.4635 60.9743 19.8672 61.1201 20.2109C61.2686 20.5547 61.4769 20.8216 61.7451 21.0117C62.016 21.2018 62.3337 21.2969 62.6982 21.2969C62.9378 21.2969 63.1553 21.2552 63.3506 21.1719C63.5459 21.0885 63.7113 20.9688 63.8467 20.8125C63.9821 20.6562 64.0785 20.4687 64.1357 20.25H65.0576C65.0055 20.6042 64.8766 20.9232 64.6709 21.207C64.4678 21.4883 64.1982 21.7122 63.8623 21.8789C63.529 22.043 63.141 22.125 62.6982 22.125ZM69.0146 16V16.7812H65.9053V16H69.0146ZM66.8115 14.5625H67.7334V20.2812C67.7334 20.5417 67.7712 20.737 67.8467 20.8672C67.9248 20.9948 68.0238 21.0807 68.1436 21.125C68.266 21.1667 68.3949 21.1875 68.5303 21.1875C68.6318 21.1875 68.7152 21.1823 68.7803 21.1719C68.8454 21.1589 68.8975 21.1484 68.9365 21.1406L69.124 21.9687C69.0615 21.9922 68.9743 22.0156 68.8623 22.0391C68.7503 22.0651 68.6084 22.0781 68.4365 22.0781C68.1761 22.0781 67.9209 22.0221 67.6709 21.9102C67.4235 21.7982 67.2178 21.6276 67.0537 21.3984C66.8923 21.1693 66.8115 20.8802 66.8115 20.5312V14.5625ZM70.4014 22V16H71.3232V22H70.4014ZM70.8701 15C70.6904 15 70.5355 14.9388 70.4053 14.8164C70.2777 14.694 70.2139 14.5469 70.2139 14.375C70.2139 14.2031 70.2777 14.056 70.4053 13.9336C70.5355 13.8112 70.6904 13.75 70.8701 13.75C71.0498 13.75 71.2035 13.8112 71.3311 13.9336C71.4613 14.056 71.5264 14.2031 71.5264 14.375C71.5264 14.5469 71.4613 14.694 71.3311 14.8164C71.2035 14.9388 71.0498 15 70.8701 15ZM75.4492 22.125C74.9076 22.125 74.4323 21.9961 74.0234 21.7383C73.6172 21.4805 73.2995 21.1198 73.0703 20.6562C72.8438 20.1927 72.7305 19.651 72.7305 19.0312C72.7305 18.4062 72.8438 17.8607 73.0703 17.3945C73.2995 16.9284 73.6172 16.5664 74.0234 16.3086C74.4323 16.0508 74.9076 15.9219 75.4492 15.9219C75.9909 15.9219 76.4648 16.0508 76.8711 16.3086C77.2799 16.5664 77.5977 16.9284 77.8242 17.3945C78.0534 17.8607 78.168 18.4062 78.168 19.0312C78.168 19.651 78.0534 20.1927 77.8242 20.6562C77.5977 21.1198 77.2799 21.4805 76.8711 21.7383C76.4648 21.9961 75.9909 22.125 75.4492 22.125ZM75.4492 21.2969C75.8607 21.2969 76.1992 21.1914 76.4648 20.9805C76.7305 20.7695 76.9271 20.4922 77.0547 20.1484C77.1823 19.8047 77.2461 19.4323 77.2461 19.0312C77.2461 18.6302 77.1823 18.2565 77.0547 17.9102C76.9271 17.5638 76.7305 17.2839 76.4648 17.0703C76.1992 16.8568 75.8607 16.75 75.4492 16.75C75.0378 16.75 74.6992 16.8568 74.4336 17.0703C74.168 17.2839 73.9714 17.5638 73.8438 17.9102C73.7161 18.2565 73.6523 18.6302 73.6523 19.0312C73.6523 19.4323 73.7161 19.8047 73.8438 20.1484C73.9714 20.4922 74.168 20.7695 74.4336 20.9805C74.6992 21.1914 75.0378 21.2969 75.4492 21.2969ZM80.4971 18.3906V22H79.5752V16H80.4658V16.9375H80.5439C80.6846 16.6328 80.8981 16.388 81.1846 16.2031C81.471 16.0156 81.8408 15.9219 82.2939 15.9219C82.7002 15.9219 83.0557 16.0052 83.3604 16.1719C83.665 16.3359 83.902 16.5859 84.0713 16.9219C84.2406 17.2552 84.3252 17.6771 84.3252 18.1875V22H83.4033V18.25C83.4033 17.7786 83.2809 17.4115 83.0361 17.1484C82.7913 16.8828 82.4554 16.75 82.0283 16.75C81.734 16.75 81.471 16.8138 81.2393 16.9414C81.0101 17.069 80.8291 17.2552 80.6963 17.5C80.5635 17.7448 80.4971 18.0417 80.4971 18.3906ZM91.791 22.1094C91.2754 22.1094 90.8158 22.0208 90.4121 21.8437C90.0111 21.6667 89.6921 21.4206 89.4551 21.1055C89.2207 20.7878 89.0931 20.4193 89.0723 20H90.0566C90.0775 20.2578 90.166 20.4805 90.3223 20.668C90.4785 20.8529 90.6829 20.9961 90.9355 21.0977C91.1882 21.1992 91.4681 21.25 91.7754 21.25C92.1191 21.25 92.4238 21.1901 92.6895 21.0703C92.9551 20.9505 93.1634 20.7839 93.3145 20.5703C93.4655 20.3568 93.541 20.1094 93.541 19.8281C93.541 19.5339 93.4681 19.2747 93.3223 19.0508C93.1764 18.8242 92.9629 18.6471 92.6816 18.5195C92.4004 18.3919 92.0566 18.3281 91.6504 18.3281H91.0098V17.4687H91.6504C91.9681 17.4687 92.2467 17.4115 92.4863 17.2969C92.7285 17.1823 92.9173 17.0208 93.0527 16.8125C93.1908 16.6042 93.2598 16.3594 93.2598 16.0781C93.2598 15.8073 93.1999 15.5716 93.0801 15.3711C92.9603 15.1706 92.791 15.0143 92.5723 14.9023C92.3561 14.7904 92.1009 14.7344 91.8066 14.7344C91.5306 14.7344 91.2702 14.7852 91.0254 14.8867C90.7832 14.9857 90.5853 15.1302 90.4316 15.3203C90.278 15.5078 90.1947 15.7344 90.1816 16H89.2441C89.2598 15.5807 89.3861 15.2135 89.623 14.8984C89.86 14.5807 90.1699 14.3333 90.5527 14.1562C90.9382 13.9792 91.3613 13.8906 91.8223 13.8906C92.3171 13.8906 92.7415 13.9909 93.0957 14.1914C93.4499 14.3893 93.722 14.651 93.9121 14.9766C94.1022 15.3021 94.1973 15.6536 94.1973 16.0313C94.1973 16.4818 94.0788 16.8659 93.8418 17.1836C93.6074 17.5013 93.2884 17.7214 92.8848 17.8438V17.9062C93.39 17.9896 93.7845 18.2044 94.0684 18.5508C94.3522 18.8945 94.4941 19.3203 94.4941 19.8281C94.4941 20.263 94.3757 20.6536 94.1387 21C93.9043 21.3437 93.584 21.6146 93.1777 21.8125C92.7715 22.0104 92.3092 22.1094 91.791 22.1094Z" fill="black"/>
<defs>
<linearGradient id="paint0_linear_0_1" x1="173.923" y1="189.32" x2="140.947" y2="243.859" gradientUnits="userSpaceOnUse">
<stop stop-color="#39EFC7"/>
<stop offset="1" stop-color="#38A7FF"/>
</linearGradient>
<linearGradient id="paint1_linear_0_1" x1="173.923" y1="189.32" x2="140.947" y2="243.859" gradientUnits="userSpaceOnUse">
<stop stop-color="#39EFC7"/>
<stop offset="1" stop-color="#38A7FF"/>
</linearGradient>
</defs>
</svg>
